HIERARCHY
ROOT Hips
{
	OFFSET 0.00000 0.00000 0.00000
	CHANNELS 6 Xposition Yposition Zposition Zrotation Yrotation Xrotation 
	JOINT LHipJoint
	{
		OFFSET 0 0 0
		CHANNELS 3 Zrotation Yrotation Xrotation
		JOINT LeftHip
		{
			OFFSET 1.53139 -1.83434 0.76626
			CHANNELS 3 Zrotation Yrotation Xrotation
			JOINT LeftKnee
			{
				OFFSET 2.56112 -7.03663 0.00000
				CHANNELS 3 Zrotation Yrotation Xrotation
				JOINT LeftAnkle
				{
					OFFSET 2.59983 -7.14299 0.00000
					CHANNELS 3 Zrotation Yrotation Xrotation
					JOINT LeftToe
					{
						OFFSET 0.13742 -0.37757 2.00054
						CHANNELS 3 Zrotation Yrotation Xrotation
						End Site
						{
							OFFSET 0.00000 -0.00000 1.02897
						}
					}
				}
			}
		}
	}
	JOINT RHipJoint
	{
		OFFSET 0 0 0
		CHANNELS 3 Zrotation Yrotation Xrotation
		JOINT RightHip
		{
			OFFSET -1.40122 -1.83435 0.76627
			CHANNELS 3 Zrotation Yrotation Xrotation
			JOINT RightKnee
			{
				OFFSET -2.54052 -6.98003 0.00000
				CHANNELS 3 Zrotation Yrotation Xrotation
				JOINT RightAnkle
				{
					OFFSET -2.63179 -7.23079 0.00000
					CHANNELS 3 Zrotation Yrotation Xrotation
					JOINT RightToe
					{
						OFFSET -0.24131 -0.66299 2.03908
						CHANNELS 3 Zrotation Yrotation Xrotation
						End Site
						{
							OFFSET -0.00000 -0.00000 1.07391
						}
					}
				}
			}
		}
	}
	JOINT lowerback
	{
		OFFSET 0 0 0
		CHANNELS 3 Zrotation Yrotation Xrotation
		JOINT Chest
		{
			OFFSET 0.01174 2.10302 -0.29778
			CHANNELS 3 Zrotation Yrotation Xrotation
			JOINT Chest2
			{
				OFFSET 0.00772 2.13227 -0.01247
				CHANNELS 3 Zrotation Yrotation Xrotation
				JOINT lowerneck
				{
					OFFSET 0 0 0
					CHANNELS 3 Zrotation Yrotation Xrotation
					JOINT Neck
					{
						OFFSET -0.09219 1.60848 0.31481
						CHANNELS 3 Zrotation Yrotation Xrotation
						JOINT Head
						{
							OFFSET 0.13974 1.65456 -0.31134
							CHANNELS 3 Zrotation Yrotation Xrotation
							End Site
							{
								OFFSET 0.04742 1.69515 -0.14578
							}
						}
					}
				}
				JOINT LeftCollar
				{
					OFFSET 0 0 0
					CHANNELS 3 Zrotation Yrotation Xrotation
					JOINT LeftShoulder
					{
						OFFSET 3.24909 1.02882 -0.23993
CHANNELS 3 Zrotation Xrotation Yrotation
						JOINT LeftElbow
						{
OFFSET 0 -5.329550 -0.000000
CHANNELS 3 Zrotation Xrotation Yrotation
							JOINT LeftWrist
							{
OFFSET 0 -3.692320 -0.000000
CHANNELS 3 Zrotation Xrotation Yrotation
								JOINT lhand
								{
									OFFSET 0 0 0
CHANNELS 3 Zrotation Xrotation Yrotation
									JOINT LFingers
									{
OFFSET 0 -0.536600 -0.000000
CHANNELS 3 Zrotation Xrotation Yrotation
										End Site
										{
OFFSET 0 -0.432620 -0.000000
										}
									}
								}
								JOINT LThumb
								{
OFFSET 0 0.000000 0.000000
CHANNELS 3 Zrotation Xrotation Yrotation
									End Site
									{
OFFSET 0 -0.439220 0.439220
									}
								}
							}
						}
					}
				}
				JOINT RightCollar
				{
					OFFSET 0 0 0
					CHANNELS 3 Zrotation Yrotation Xrotation
					JOINT RightShoulder
					{
						OFFSET -3.21387 0.93002 -0.34594
CHANNELS 3 Zrotation Xrotation Yrotation
						JOINT RightElbow
						{
OFFSET 0 -5.234310 0.000000
CHANNELS 3 Zrotation Xrotation Yrotation
							JOINT RightWrist
							{
OFFSET 0 -3.553010 -0.000000
CHANNELS 3 Zrotation Xrotation Yrotation
								JOINT rhand
								{
									OFFSET 0 0 0
CHANNELS 3 Zrotation Xrotation Yrotation
									JOINT RFingers
									{
OFFSET 0 -0.772520 -0.000000
CHANNELS 3 Zrotation Xrotation Yrotation
										End Site
										{
OFFSET 0 -0.622830 -0.000000
										}
									}
								}
								JOINT RThumb
								{
OFFSET 0 0.000000 0.000000
CHANNELS 3 Zrotation Xrotation Yrotation
									End Site
									{
OFFSET 0 -0.632340 0.632340
									}
								}
							}
						}
					}
				}
			}
		}
	}
}
MOTION
Frames: 8
Frame Time: 0.008333333333333333
6.756712 17.690371 -1.309603 10.340460 -48.124969 -7.593835 0.000000 0.000000 0.000000 -31.329521 4.163119 7.974166 0.229147 3.077924 8.495903 0.097721 -9.808890 -8.428039 0.013793 -0.747700 -2.054901 0.000000 0.000000 0.000000 10.990607 6.583135 -31.125593 -3.078864 -10.815542 31.666905 -0.239428 -1.926356 -10.155448 -0.016144 -0.811188 2.229401 -6.696831 0.156892 11.251033 -0.809274 -0.691157 1.396950 3.031096 -0.239703 -4.781371 -10.691816 -4.009299 -19.787442 7.546232 -4.427970 24.106046 3.890229 -2.085460 11.563226 0.000000 0.000000 0.000000 7.810847 0.139957 -27.572870 21.812557 -32.764525 6.484162 17.402859 12.983462 -25.287351 0.000000 0.000000 0.000000 -7.125000 0.000000 0.000000 -13.261090 55.824951 3.567073 0.000000 0.000000 0.000000 -1.754623 1.862925 17.743011 -20.626472 -31.389750 -5.854142 -11.614201 5.311412 -9.442531 0.000000 0.000000 0.000000 7.125000 0.000000 0.000000 10.951123 20.422215 6.560712
6.673772 17.684588 -1.244205 10.382492 -48.097145 -7.590835 0.000000 0.000000 0.000000 -31.301367 4.343387 8.793505 0.184764 2.758638 7.608023 0.076079 -9.721667 -8.047513 0.006634 -0.496876 -1.365365 0.000000 0.000000 0.000000 10.970125 6.725430 -30.924606 -2.730198 -10.233804 29.747645 -0.258295 -1.951086 -10.516087 -0.016728 -0.835374 2.295868 -6.728298 0.121726 11.127827 -0.835389 -0.732978 1.386397 3.026227 -0.261623 -4.719657 -10.715879 -4.002582 -19.714127 7.641280 -4.444135 24.063231 3.926953 -2.084284 11.537095 0.000000 0.000000 0.000000 7.918608 0.165521 -27.700331 21.824017 -32.777522 6.490289 17.202474 12.960438 -25.284361 0.000000 0.000000 0.000000 -7.125000 0.000000 0.000000 -13.465639 55.781611 3.609211 0.000000 0.000000 0.000000 -1.623743 1.958752 17.503062 -20.550369 -31.299722 -5.814578 -11.529200 5.507306 -9.523128 0.000000 0.000000 0.000000 7.125000 0.000000 0.000000 11.007461 20.345256 6.615351
6.589710 17.674898 -1.178492 10.499684 -48.068395 -7.621763 0.000000 0.000000 0.000000 -31.328759 4.545070 9.666127 0.138645 2.382836 6.565656 0.055129 -9.574741 -7.630066 0.008906 -0.529677 -1.455732 0.000000 0.000000 0.000000 10.864492 6.955129 -30.750617 -2.412309 -9.668795 27.917020 -0.282710 -1.969670 -10.958134 -0.021513 -0.929261 2.554272 -6.816291 0.088076 10.994569 -0.875979 -0.780224 1.356763 3.038490 -0.284416 -4.671325 -10.689880 -3.996070 -19.678226 7.694946 -4.464524 24.073354 3.940000 -2.085608 11.536560 0.000000 0.000000 0.000000 8.029279 0.204623 -27.824792 21.805755 -32.756737 6.480384 17.119393 13.064765 -25.155082 0.000000 0.000000 0.000000 -7.125000 0.000000 0.000000 -13.486542 55.636872 3.568413 0.000000 0.000000 0.000000 -1.491196 2.091868 17.287480 -20.480690 -31.217127 -5.778434 -11.348180 5.702410 -9.565008 0.000000 0.000000 0.000000 7.125000 0.000000 0.000000 11.133701 20.311099 6.702866
6.504993 17.661417 -1.112649 10.689338 -48.016814 -7.675828 0.000000 0.000000 0.000000 -31.417023 4.749979 10.607158 0.090044 1.933571 5.322159 0.038101 -9.310517 -7.188392 0.024728 -1.012148 -2.782385 0.000000 0.000000 0.000000 10.646529 7.320601 -30.598284 -2.127013 -9.125093 26.187788 -0.313574 -2.022458 -11.515388 -0.036058 -1.224845 3.367661 -6.974087 0.047847 10.858697 -0.916350 -0.845074 1.301989 3.092626 -0.313222 -4.645214 -10.628152 -3.994438 -19.695396 7.695585 -4.486874 24.151755 3.928080 -2.091071 11.570404 0.000000 0.000000 0.000000 8.112150 0.268692 -27.928949 21.763397 -32.708632 6.457538 17.278750 13.338851 -24.809335 0.000000 0.000000 0.000000 -7.125000 0.000000 0.000000 -13.150018 55.326601 3.376418 0.000000 0.000000 0.000000 -1.391154 2.264635 17.146712 -20.419246 -31.144118 -5.746648 -11.097791 5.830193 -9.576431 0.000000 0.000000 0.000000 7.125000 0.000000 0.000000 11.310441 20.310318 6.813692
6.419654 17.648075 -1.044520 10.824743 -47.939320 -7.671765 0.000000 0.000000 0.000000 -31.467043 5.067262 11.954252 0.040056 1.196854 3.291893 0.003821 -8.944241 -6.321188 0.058148 -1.520045 -4.181714 0.000000 0.000000 0.000000 10.428288 7.737895 -30.494449 -1.892015 -8.629819 24.648874 -0.338757 -2.109818 -11.969481 -0.022544 -0.951484 2.615413 -7.145671 0.000897 10.677999 -0.886192 -0.911310 1.257814 3.227892 -0.343345 -4.580930 -10.655798 -3.991559 -19.635594 7.656109 -4.466408 24.103717 3.919971 -2.089884 11.538083 0.000000 0.000000 0.000000 8.066157 0.276089 -27.972207 21.708914 -32.646462 6.428109 17.672351 13.647093 -24.572638 0.000000 0.000000 0.000000 -7.125000 0.000000 0.000000 -12.633292 55.168958 3.192667 0.000000 0.000000 0.000000 -1.435496 2.431652 17.150467 -20.364176 -31.078591 -5.718187 -11.171852 5.781169 -9.473816 0.000000 0.000000 0.000000 7.125000 0.000000 0.000000 11.263193 20.409651 6.758449
6.334983 17.639041 -0.977381 11.003702 -47.818153 -7.669963 0.000000 0.000000 0.000000 -31.554484 5.298136 13.193969 0.010997 0.522895 1.437200 -0.028018 -8.630505 -5.467427 0.073484 -1.748528 -4.811233 0.000000 0.000000 0.000000 10.098191 8.263943 -30.399265 -1.686313 -8.173049 23.244581 -0.362274 -2.252366 -12.417869 -0.009842 -0.466706 1.282645 -7.345951 -0.054262 10.468460 -0.869865 -0.989327 1.213131 3.365514 -0.379615 -4.499028 -10.667413 -3.999956 -19.589346 7.603758 -4.460520 24.035452 3.901372 -2.094611 11.501634 0.000000 0.000000 0.000000 8.037618 0.275602 -28.034477 21.679406 -32.612802 6.412162 17.815668 13.816145 -24.433239 0.000000 0.000000 0.000000 -7.125000 0.000000 0.000000 -12.419851 55.058566 3.102981 0.000000 0.000000 0.000000 -1.472012 2.571734 17.134248 -20.288418 -30.988179 -5.679145 -11.291308 5.737943 -9.364510 0.000000 0.000000 0.000000 7.125000 0.000000 0.000000 11.183992 20.513849 6.682347
6.250666 17.634670 -0.911635 11.192718 -47.662528 -7.656830 0.000000 0.000000 0.000000 -31.657654 5.409697 14.212261 0.000000 0.000000 0.000000 -0.051993 -8.395381 -4.780882 0.075619 -1.773707 -4.880668 0.000000 0.000000 0.000000 9.667185 8.940467 -30.279796 -1.509233 -7.756977 21.979165 -0.390059 -2.460385 -12.951515 -0.000156 0.079516 -0.218529 -7.550014 -0.116750 10.245253 -0.864635 -1.076324 1.168691 3.494194 -0.420778 -4.407891 -10.658174 -4.017040 -19.568555 7.540244 -4.467490 23.965815 3.872838 -2.103909 11.470240 0.000000 0.000000 0.000000 8.029429 0.272510 -28.107549 21.666997 -32.598649 6.405453 17.753948 13.882895 -24.382975 0.000000 0.000000 0.000000 -7.125000 0.000000 0.000000 -12.459085 54.996352 3.094041 0.000000 0.000000 0.000000 -1.482324 2.685654 17.069427 -20.190574 -30.871158 -5.628841 -11.413874 5.731165 -9.255471 0.000000 0.000000 0.000000 7.125000 0.000000 0.000000 11.102527 20.617719 6.605118
6.165454 17.637650 -0.849055 11.252459 -47.498417 -7.568211 0.000000 0.000000 0.000000 -31.688447 5.247289 14.525370 0.000000 0.000000 0.000000 -0.045608 -8.355932 -4.891141 0.082714 -1.854947 -5.105017 0.000000 0.000000 0.000000 9.153282 9.982462 -30.000034 -1.370522 -7.406051 20.925321 -0.446892 -2.796482 -13.953848 -0.000511 0.147487 -0.405202 -7.658569 -0.185573 10.062269 -0.855340 -1.163382 1.128675 3.573447 -0.463136 -4.335520 -10.611700 -4.034424 -19.620917 7.465674 -4.479481 23.958933 3.834382 -2.112849 11.476199 0.000000 0.000000 0.000000 8.046102 0.282088 -28.154803 21.642873 -32.571049 6.392469 17.640710 13.974210 -24.422779 0.000000 0.000000 0.000000 -7.125000 0.000000 0.000000 -12.593467 55.013806 3.133632 0.000000 0.000000 0.000000 -1.398743 2.769093 16.840609 -20.059740 -30.714213 -5.561863 -11.399755 5.878106 -9.163943 0.000000 0.000000 0.000000 7.125000 0.000000 0.000000 11.117284 20.709814 6.590644
